HIERARCHY
ROOT Hips
{
 OFFSET 0.000000 0.000000 0.000000
 CHANNELS 6 Xposition Yposition Zposition Yrotation Xrotation Zrotation
 JOINT Chest
 {
  OFFSET 0.000000 10.678932 0.006280
  CHANNELS 3 Yrotation Xrotation Zrotation
  JOINT Chest2
  {
   OFFSET 0.000000 10.491159 -0.011408
   CHANNELS 3 Yrotation Xrotation Zrotation
   JOINT Chest3
   {
    OFFSET 0.000000 9.479342 0.000000
    CHANNELS 3 Yrotation Xrotation Zrotation
    JOINT Chest4
    {
     OFFSET 0.000000 9.479342 0.000000
     CHANNELS 3 Yrotation Xrotation Zrotation
     JOINT Neck
     {
      OFFSET 0.000000 13.535332 0.000000
      CHANNELS 3 Yrotation Xrotation Zrotation
      JOINT Head
      {
       OFFSET 0.000000 8.819083 -0.027129
       CHANNELS 3 Yrotation Xrotation Zrotation
       End Site
       {
        OFFSET 0.000000 16.966594 -0.014170
       }
      }
     }
     JOINT RightCollar
     {
      OFFSET -3.012546 7.545150 0.000000
      CHANNELS 3 Yrotation Xrotation Zrotation
      JOINT RightShoulder
      {
       OFFSET -13.683099 0.000000 0.000000
       CHANNELS 3 Yrotation Xrotation Zrotation
       JOINT RightElbow
       {
        OFFSET -26.359998 0.000000 0.000000
        CHANNELS 3 Yrotation Xrotation Zrotation
        JOINT RightWrist
        {
         OFFSET -21.746691 0.000000 0.008601
         CHANNELS 3 Yrotation Xrotation Zrotation
         End Site
         {
          OFFSET -16.348058 0.000000 0.000000
         }
        }
       }
      }
     }
     JOINT LeftCollar
     {
      OFFSET 3.012546 7.545150 0.000000
      CHANNELS 3 Yrotation Xrotation Zrotation
      JOINT LeftShoulder
      {
       OFFSET 13.683099 0.000000 0.000000
       CHANNELS 3 Yrotation Xrotation Zrotation
       JOINT LeftElbow
       {
        OFFSET 26.359998 0.000000 0.000000
        CHANNELS 3 Yrotation Xrotation Zrotation
        JOINT LeftWrist
        {
         OFFSET 21.746691 0.000000 0.008601
         CHANNELS 3 Yrotation Xrotation Zrotation
         End Site
         {
          OFFSET 16.348058 0.000000 0.000000
         }
        }
       }
      }
     }
    }
   }
  }
 }
 JOINT RightHip
 {
  OFFSET -8.622479 -0.030774 -0.003140
  CHANNELS 3 Yrotation Xrotation Zrotation
  JOINT RightKnee
  {
   OFFSET 0.000000 -37.209160 -0.002630
   CHANNELS 3 Yrotation Xrotation Zrotation
   JOINT RightAnkle
   {
    OFFSET 0.000000 -37.343279 -0.058479
    CHANNELS 3 Yrotation Xrotation Zrotation
    JOINT RightToe
    {
     OFFSET 0.000000 -8.903465 15.088070
     CHANNELS 3 Yrotation Xrotation Zrotation
     End Site
     {
      OFFSET 0.000000 -1.471739 6.884388
     }
    }
   }
  }
 }
 JOINT LeftHip
 {
  OFFSET 8.622479 -0.030774 -0.003140
  CHANNELS 3 Yrotation Xrotation Zrotation
  JOINT LeftKnee
  {
   OFFSET 0.000000 -37.209160 -0.002630
   CHANNELS 3 Yrotation Xrotation Zrotation
   JOINT LeftAnkle
   {
    OFFSET 0.000000 -37.343279 -0.058479
    CHANNELS 3 Yrotation Xrotation Zrotation
    JOINT LeftToe
    {
     OFFSET 0.000000 -8.903465 15.088070
     CHANNELS 3 Yrotation Xrotation Zrotation
     End Site
     {
      OFFSET 0.000000 -1.471739 6.884388
     }
    }
   }
  }
 }
}
MOTION
Frames: 12
Frame Time: 0.025000
0.000000 83.315683 0.000000 0.000000 -5.826342 0.000000 0.000000 11.116423 0.000000 0.000000 -5.290081 0.000000 0.000000 0.000000 0.000000 0.000000 0.000000 0.000000 0.000000 12.665069 0.000000 0.000000 0.575450 0.000000 0.000000 0.000000 0.000000 0.000000 0.000000 0.000000 2.337306 0.000000 0.000000 -2.337306 0.000000 0.000000 0.000000 0.000000 0.000000 0.000000 0.000000 0.000000 -2.337306 0.000000 0.000000 2.337306 0.000000 0.000000 0.000000 8.578828 0.000000 0.000000 1.905768 0.000000 0.000000 -4.658254 0.000000 0.000000 0.000000 0.000000 0.000000 8.578828 0.000000 0.000000 1.905768 0.000000 0.000000 -4.658254 0.000000 0.000000 0.000000 0.000000
3.126870 82.488588 -2.512073 -163.432317 -12.583494 2.411893 -0.022186 6.091839 -0.870750 -0.000485 0.270951 -0.038541 -0.000879 0.439592 -0.062531 -0.046942 5.579781 -0.796611 -2.351908 19.167381 -0.239515 -4.228814 -0.565389 0.309274 1.982247 0.541421 8.873998 -15.617168 -1.897286 79.435858 14.419189 10.956827 7.499878 4.796990 18.335287 -11.894136 1.117364 1.544991 -10.761212 7.067530 -1.172001 -76.267319 -15.993750 13.473308 -8.174009 -7.019157 11.160696 9.245920 -5.344010 13.426208 -18.847884 0.430844 0.586119 -1.442370 10.955876 -5.488756 15.073039 0.012261 -0.024437 -0.003367 1.696452 22.047257 7.925247 7.575236 -2.347691 2.505695 -0.230943 -6.957240 -14.392770 -0.020288 0.030451 -0.023185
3.138411 82.489156 -2.508600 -163.398662 -12.597291 2.415199 -0.019732 6.122976 -0.869122 -0.000341 0.273610 -0.038794 -0.000646 0.443757 -0.062921 -0.044127 5.605042 -0.797530 -2.357508 19.157561 -0.246442 -4.237031 -0.583717 0.298677 1.973321 0.511411 8.881871 -15.562216 -1.910965 79.427183 14.403545 10.939102 7.491860 4.791268 18.286760 -11.927662 1.129686 1.507179 -10.753586 7.043628 -1.154215 -76.275548 -16.018640 13.423347 -8.183626 -7.040767 11.130959 9.287234 -5.374313 13.431878 -18.848539 0.424572 0.592441 -1.448133 10.914794 -5.473197 15.074882 0.010900 -0.025836 0.001013 1.666476 22.007310 7.936635 7.579955 -2.258064 2.495775 -0.247198 -7.002660 -14.389379 -0.017053 0.027432 -0.021200
3.153273 82.490944 -2.502869 -163.377366 -12.605123 2.423211 -0.013932 6.139246 -0.872665 0.000279 0.275614 -0.039088 0.000358 0.446895 -0.063379 -0.031664 5.623899 -0.799814 -2.357050 19.163198 -0.243142 -4.237144 -0.573152 0.304396 1.956921 0.500428 8.888202 -15.536072 -1.926516 79.427334 14.402282 10.953235 7.481728 4.790097 18.285778 -11.929839 1.126312 1.486510 -10.759489 7.053747 -1.155082 -76.273222 -16.027556 13.395276 -8.193742 -7.057220 11.122424 9.324521 -5.381654 13.428895 -18.848414 0.407980 0.607131 -1.447794 10.903809 -5.475644 15.069496 0.012267 -0.018632 0.001362 1.657755 21.958843 7.948735 7.566847 -2.172390 2.486155 -0.268864 -7.041146 -14.388925 -0.020627 0.021620 -0.017615
3.167611 82.493700 -2.497162 -163.368053 -12.609548 2.430539 -0.002100 6.147142 -0.874997 0.001000 0.276439 -0.039240 0.001526 0.448186 -0.063617 -0.017075 5.631631 -0.800937 -2.344936 19.185286 -0.236642 -4.216655 -0.532218 0.311772 1.945913 0.492508 8.875528 -15.494523 -1.933715 79.441021 14.387217 10.937169 7.472390 4.781295 18.308093 -11.902204 1.134975 1.484667 -10.757167 7.059532 -1.154445 -76.284118 -16.039229 13.368318 -8.173149 -7.079485 11.126646 9.316725 -5.392457 13.420668 -18.855032 0.397210 0.614405 -1.436397 10.956901 -5.487772 15.065392 0.012671 -0.013281 -0.004280 1.658600 21.922509 7.962243 7.546310 -2.110036 2.474143 -0.265121 -7.063088 -14.383184 -0.024503 0.013685 -0.020336
3.172824 82.494413 -2.493602 -163.349574 -12.606710 2.433259 0.004310 6.145329 -0.880014 0.001275 0.276159 -0.039345 0.001972 0.447748 -0.063789 -0.011542 5.628820 -0.803221 -2.332900 19.213992 -0.234277 -4.194885 -0.479131 0.311413 1.943509 0.486457 8.876235 -15.471670 -1.932807 79.433672 14.379689 10.914630 7.476263 4.778889 18.312523 -11.879798 1.144242 1.482244 -10.756548 7.056235 -1.149392 -76.278791 -16.023964 13.336784 -8.159160 -7.089854 11.107611 9.329690 -5.387390 13.417608 -18.852474 0.377135 0.621421 -1.440963 10.888642 -5.478242 15.072550 0.011176 -0.009977 0.001419 1.642154 21.892170 7.961554 7.548646 -2.067185 2.471235 -0.264776 -7.079305 -14.371486 -0.027634 0.010974 -0.025979
3.174092 82.496065 -2.488605 -163.335505 -12.613064 2.430123 0.013677 6.155454 -0.883343 0.001860 0.277534 -0.039588 0.002919 0.449899 -0.064170 0.000114 5.641614 -0.805445 -2.322963 19.231747 -0.232706 -4.176893 -0.446352 0.310605 1.897916 0.447259 8.890982 -15.429457 -1.933203 79.421120 14.373388 10.895709 7.466523 4.769533 18.307782 -11.858015 1.132885 1.452848 -10.744965 7.053570 -1.136156 -76.276520 -16.020235 13.269848 -8.154489 -7.077106 11.104813 9.352125 -5.392246 13.419672 -18.846663 0.368389 0.623359 -1.445172 10.936859 -5.483380 15.062392 0.011124 -0.016225 0.008376 1.659878 21.891613 7.977064 7.494754 -2.070757 2.465687 -0.248395 -7.080064 -14.360672 -0.024688 0.011223 -0.024905
3.173851 82.496716 -2.484581 -163.323860 -12.611628 2.431167 0.006609 6.170548 -0.877287 0.001617 0.278674 -0.039320 0.002525 0.451686 -0.063728 -0.004659 5.652867 -0.798551 -2.312508 19.243799 -0.243479 -4.154145 -0.424571 0.287230 1.893192 0.393256 8.883755 -15.410673 -1.935955 79.405716 14.354207 10.867569 7.459023 4.757162 18.298855 -11.848019 1.135698 1.406645 -10.755405 7.072543 -1.124957 -76.274255 -16.029629 13.263791 -8.161761 -7.093716 11.073641 9.362827 -5.396513 13.411602 -18.846533 0.368274 0.633890 -1.449570 10.893157 -5.480503 15.068455 0.013391 -0.014435 0.007106 1.658191 21.883901 7.979371 7.503706 -2.067995 2.456990 -0.270370 -7.084460 -14.348270 -0.026833 0.010903 -0.023336
3.172967 82.499832 -2.483857 -163.305986 -12.612629 2.438075 -0.004652 6.180174 -0.871692 0.001192 0.279719 -0.039117 0.001836 0.453322 -0.063392 -0.013143 5.663062 -0.793298 -2.310797 19.255468 -0.258004 -4.146217 -0.403419 0.259773 1.899800 0.344829 8.866029 -15.411350 -1.919119 79.400119 14.355510 10.841473 7.465442 4.764444 18.301779 -11.841721 1.130158 1.363979 -10.772802 7.069345 -1.098480 -76.262000 -16.048006 13.282990 -8.170736 -7.101315 11.051904 9.370564 -5.438943 13.399072 -18.865719 0.385297 0.639870 -1.444518 10.859990 -5.467754 15.071930 0.017279 -0.019232 0.006771 1.619022 21.882470 7.959668 7.511101 -2.063992 2.461432 -0.251038 -7.077510 -14.349131 -0.028641 0.003756 -0.021575
3.177941 82.503505 -2.480762 -163.287539 -12.625767 2.432599 -0.015131 6.188321 -0.858927 0.000884 0.280793 -0.038568 0.001338 0.455008 -0.062495 -0.018906 5.674036 -0.780963 -2.312806 19.265957 -0.269186 -4.146178 -0.384261 0.239644 1.893507 0.319000 8.842017 -15.408032 -1.904192 79.403256 14.357115 10.851604 7.477718 4.770112 18.298383 -11.843437 1.111968 1.328519 -10.794338 7.038438 -1.075197 -76.231225 -16.052386 13.291485 -8.182687 -7.091892 11.029979 9.355814 -5.464819 13.402926 -18.857496 0.389300 0.644562 -1.455122 10.879523 -5.466336 15.074040 0.017285 -0.024904 0.006426 1.600594 21.879287 7.966740 7.510088 -2.045823 2.458614 -0.252559 -7.068662 -14.347761 -0.029479 -0.007046 -0.020782
3.182475 82.504575 -2.471600 -163.290396 -12.627422 2.432585 -0.024428 6.196370 -0.852385 0.000644 0.281627 -0.038183 0.000949 0.456315 -0.061866 -0.023431 5.682450 -0.772264 -2.306332 19.272631 -0.275020 -4.132378 -0.372205 0.226731 1.890003 0.296360 8.832665 -15.361683 -1.885078 79.400743 14.365882 10.827731 7.475008 4.770016 18.282459 -11.841983 1.087199 1.285256 -10.793538 6.997618 -1.062479 -76.231131 -16.032825 13.259708 -8.163448 -7.087020 11.030507 9.340181 -5.457810 13.389885 -18.847977 0.383378 0.655093 -1.465730 10.878379 -5.458329 15.077258 0.018420 -0.026129 0.009020 1.560525 21.872089 7.959483 7.512566 -2.028567 2.444987 -0.234926 -7.079627 -14.325843 -0.029605 -0.003439 -0.025655
3.185919 82.507079 -2.462283 -163.286741 -12.624054 2.429732 -0.039217 6.196975 -0.850350 0.000053 0.281651 -0.037963 -0.000007 0.456354 -0.061511 -0.035177 5.682931 -0.768383 -2.299213 19.276349 -0.276114 -4.118947 -0.365496 0.222371 1.918213 0.277533 8.820488 -15.367561 -1.870334 79.408457 14.363095 10.837128 7.479163 4.779172 18.268466 -11.853179 1.085596 1.266712 -10.785550 6.974272 -1.064915 -76.229088 -16.028872 13.267092 -8.176025 -7.083311 11.023451 9.338400 -5.449989 13.374128 -18.837237 0.381736 0.667618 -1.470900 10.910479 -5.461987 15.073176 0.020443 -0.028441 0.010702 1.540030 21.850401 7.956634 7.520325 -2.004759 2.441835 -0.249834 -7.089841 -14.313139 -0.031331 -0.003600 -0.026104
